<svg width="248" height="35" viewBox="0 0 248 35" fill="none" xmlns="http://www.w3.org/2000/svg">
<path fill-rule="evenodd" clip-rule="evenodd" d="M16.2013 2.21832C16.5308 2.79453 16.8026 3.39829 17.0152 4.02074C17.5008 5.4435 17.6761 6.96398 17.5187 8.47647C17.2923 10.6507 16.3902 12.6967 14.9415 14.3213C13.4929 15.9459 11.572 17.0658 9.45433 17.5203C7.98117 17.8365 6.46534 17.8194 5.01327 17.4804C4.37844 17.3322 3.75581 17.1224 3.15426 16.8521C3.15383 16.8519 3.15341 16.8517 3.15298 16.8515L7.32285 7.39438L16.2013 2.21832ZM8.84873 8.78171L5.82596 15.6372C6.8866 15.8336 7.98127 15.8206 9.04835 15.5915C10.7627 15.2236 12.3176 14.3171 13.4904 13.0019C14.6631 11.6867 15.3934 10.0304 15.5766 8.27037C15.6906 7.17482 15.5891 6.07414 15.2848 5.02951L8.84873 8.78171Z" fill="#4F4F4F"/>
<path fill-rule="evenodd" clip-rule="evenodd" d="M7.6675 3.207C7.83221 2.80538 7.96539 2.39238 8.0662 1.97183H1.95276V8.14499C2.36924 8.0432 2.77824 7.90872 3.17597 7.74239C4.18288 7.32121 5.09777 6.70393 5.86842 5.92575C6.63908 5.14756 7.25039 4.22374 7.6675 3.207ZM1.95276 10.1626C1.31088 10.2883 0.657005 10.3521 0 10.3521V0H10.252C10.252 0.663423 10.1888 1.32368 10.0643 1.97183C9.93362 2.65184 9.73537 3.31853 9.4716 3.96158C8.95636 5.21756 8.20123 6.35876 7.24922 7.32003C6.29725 8.28135 5.16709 9.04385 3.92326 9.56412C3.28643 9.83047 2.62619 10.0307 1.95276 10.1626Z" fill="#4F4F4F"/>
<path fill-rule="evenodd" clip-rule="evenodd" d="M14.8628 3.38416C13.498 2.46332 11.8934 1.97183 10.252 1.97183V0C12.2796 0 14.2617 0.607142 15.9477 1.74465C17.6336 2.88215 18.9476 4.49893 19.7236 6.39051C20.4995 8.28213 20.7025 10.3636 20.307 12.3717C19.9114 14.3798 18.9349 16.2244 17.5012 17.6721C16.0674 19.1199 14.2407 20.1059 12.252 20.5053C10.2633 20.9048 8.20201 20.6997 6.32869 19.9162C4.45541 19.1327 2.85427 17.8058 1.72777 16.1035C0.601268 14.401 0 12.3996 0 10.3521H1.95276C1.95276 12.0096 2.43949 13.6298 3.35143 15.008C4.26335 16.3861 5.5595 17.4602 7.07601 18.0945C8.59247 18.7287 10.2612 18.8947 11.871 18.5714C13.4809 18.248 14.9597 17.4499 16.1204 16.2779C17.2811 15.1059 18.0715 13.6126 18.3917 11.987C18.7119 10.3614 18.5476 8.6764 17.9195 7.14513C17.2913 5.6138 16.2275 4.305 14.8628 3.38416Z" fill="#4F4F4F"/>
<path d="M31.9276 6.4676C32.7477 6.369 33.6264 6.29999 34.5638 6.26055C35.5206 6.2014 36.5263 6.17182 37.5808 6.17182C38.8501 6.17182 39.9827 6.32957 40.9786 6.64506C41.9745 6.96055 42.8142 7.39436 43.4976 7.94647C44.1811 8.49858 44.6986 9.169 45.0501 9.95774C45.4016 10.7268 45.5773 11.5648 45.5773 12.4718C45.5773 13.576 45.3625 14.562 44.9329 15.4296C44.5228 16.2775 43.937 16.9972 43.1754 17.5887C42.4334 18.1803 41.5351 18.6338 40.4806 18.9493C39.4261 19.2451 38.2642 19.3929 36.995 19.3929C36.1748 19.3929 35.4132 19.3634 34.7102 19.3042V27.1127H31.9276V6.4676ZM37.3464 17.0563C39.1039 17.0563 40.4513 16.6718 41.3887 15.9028C42.3455 15.1141 42.8239 14.0493 42.8239 12.7084C42.8239 11.4268 42.365 10.4113 41.4472 9.66196C40.549 8.91267 39.2406 8.53802 37.5222 8.53802C36.995 8.53802 36.497 8.54788 36.0283 8.5676C35.5597 8.58731 35.1203 8.61689 34.7102 8.65633V16.9084C35.0227 16.9479 35.3937 16.9873 35.8233 17.0268C36.2724 17.0465 36.7801 17.0563 37.3464 17.0563ZM51.2906 27.1127H48.6545V11.7324H51.2906V27.1127ZM49.9725 9.09999C49.4648 9.09999 49.0254 8.92252 48.6545 8.5676C48.303 8.19295 48.1273 7.74929 48.1273 7.23661C48.1273 6.66478 48.2933 6.21126 48.6252 5.87605C48.9571 5.54083 49.4062 5.37323 49.9725 5.37323C50.4802 5.37323 50.9098 5.56055 51.2613 5.9352C51.6323 6.29013 51.8178 6.72393 51.8178 7.23661C51.8178 7.80844 51.6519 8.26196 51.3199 8.59717C50.9879 8.93238 50.5388 9.09999 49.9725 9.09999ZM58.5256 14.3056C59.0723 13.4775 59.7656 12.7873 60.6052 12.2352C61.4645 11.6634 62.4799 11.3775 63.6515 11.3775C65.37 11.3775 66.649 11.9 67.4887 12.9451C68.3479 13.9901 68.7775 15.3704 68.7775 17.0859V27.1127H66.1413V17.3817C66.1413 16.2577 65.8874 15.3704 65.3797 14.7197C64.872 14.0493 64.1495 13.7141 63.2122 13.7141C62.763 13.7141 62.3237 13.8028 61.8941 13.9803C61.4645 14.138 61.0446 14.3648 60.6345 14.6606C60.244 14.9563 59.873 15.3014 59.5215 15.6958C59.1895 16.0901 58.8868 16.5042 58.6134 16.938V27.1127H55.9772V11.7324H58.5256V14.3056ZM74.9814 20.5169C75.1572 21.9563 75.6551 23.0803 76.4753 23.8887C77.2954 24.6972 78.3792 25.1014 79.7266 25.1014C80.6054 25.1014 81.3962 25.0127 82.0992 24.8352C82.8022 24.638 83.4759 24.3915 84.1203 24.0958L84.7354 26.3732C84.0325 26.7084 83.2416 26.9746 82.3628 27.1718C81.4841 27.369 80.498 27.4676 79.4044 27.4676C78.3109 27.4676 77.3247 27.2901 76.446 26.9352C75.5673 26.5606 74.8154 26.038 74.1906 25.3676C73.5852 24.6775 73.1166 23.8394 72.7846 22.8535C72.4526 21.8479 72.2866 20.7042 72.2866 19.4225C72.2866 18.2789 72.4526 17.2141 72.7846 16.2282C73.1166 15.2422 73.5852 14.3944 74.1906 13.6845C74.7959 12.9549 75.5184 12.3929 76.3581 11.9986C77.1978 11.5845 78.1351 11.3775 79.1701 11.3775C80.2636 11.3775 81.2205 11.5648 82.0406 11.9394C82.8608 12.3141 83.5443 12.8268 84.091 13.4775C84.6378 14.1282 85.0479 14.8873 85.3213 15.7549C85.5947 16.6225 85.7313 17.5394 85.7313 18.5056C85.7313 19.1958 85.7021 19.8662 85.6435 20.5169H74.9814ZM79.1115 13.6845C77.9594 13.6845 77.0123 14.0789 76.2703 14.8676C75.5477 15.6563 75.1084 16.8197 74.9521 18.3577H83.3002C83.3002 16.8591 82.9291 15.7056 82.1871 14.8972C81.4451 14.0887 80.4199 13.6845 79.1115 13.6845ZM95.976 26.3732L104.002 6.40844H107.048L114.957 26.3732L112.408 27.4084L110.124 21.4929H100.633L98.3486 27.3493L95.976 26.3732ZM101.512 19.1268H109.216L105.379 9.18872L101.512 19.1268ZM116.977 11.7324C118.773 11.7324 119.896 12.4521 120.345 13.8915C120.482 13.6746 120.687 13.4183 120.961 13.1225C121.253 12.8268 121.605 12.5507 122.015 12.2944C122.425 12.038 122.894 11.8211 123.421 11.6437C123.948 11.4662 124.534 11.3775 125.178 11.3775C126.057 11.3775 126.897 11.5549 127.698 11.9098C128.518 12.2648 129.23 12.7775 129.836 13.4479C130.461 14.1183 130.959 14.9465 131.33 15.9324C131.701 16.9183 131.886 18.0324 131.886 19.2746C131.886 20.4972 131.701 21.6113 131.33 22.6169C130.978 23.6225 130.49 24.4901 129.865 25.2197C129.26 25.9296 128.557 26.4817 127.756 26.876C126.956 27.2704 126.116 27.4676 125.237 27.4676C124.319 27.4676 123.47 27.2901 122.689 26.9352C121.927 26.5606 121.293 26.1366 120.785 25.6634V33.6197H118.149V15.6662C118.149 14.9958 117.983 14.5225 117.651 14.2465C117.338 13.9507 116.928 13.8028 116.42 13.8028L116.977 11.7324ZM129.191 19.3634C129.191 18.476 129.064 17.6873 128.811 16.9972C128.576 16.2873 128.244 15.6859 127.815 15.1929C127.405 14.7 126.916 14.3253 126.35 14.069C125.803 13.8127 125.218 13.6845 124.593 13.6845C123.753 13.6845 122.991 13.9014 122.308 14.3352C121.644 14.7493 121.136 15.2028 120.785 15.6958V23.2676C121.293 23.8 121.869 24.2437 122.513 24.5986C123.177 24.9338 123.909 25.1014 124.71 25.1014C125.374 25.1014 125.979 24.9634 126.526 24.6873C127.073 24.4113 127.541 24.0268 127.932 23.5338C128.342 23.0211 128.654 22.4197 128.869 21.7296C129.084 21.0197 129.191 20.231 129.191 19.3634ZM134.369 11.7324C136.165 11.7324 137.288 12.4521 137.737 13.8915C137.874 13.6746 138.079 13.4183 138.352 13.1225C138.645 12.8268 138.997 12.5507 139.407 12.2944C139.817 12.038 140.286 11.8211 140.813 11.6437C141.34 11.4662 141.926 11.3775 142.57 11.3775C143.449 11.3775 144.289 11.5549 145.089 11.9098C145.909 12.2648 146.622 12.7775 147.228 13.4479C147.852 14.1183 148.35 14.9465 148.721 15.9324C149.092 16.9183 149.278 18.0324 149.278 19.2746C149.278 20.4972 149.092 21.6113 148.721 22.6169C148.37 23.6225 147.882 24.4901 147.257 25.2197C146.651 25.9296 145.949 26.4817 145.148 26.876C144.347 27.2704 143.508 27.4676 142.629 27.4676C141.711 27.4676 140.862 27.2901 140.08 26.9352C139.319 26.5606 138.684 26.1366 138.177 25.6634V33.6197H135.54V15.6662C135.54 14.9958 135.374 14.5225 135.042 14.2465C134.73 13.9507 134.32 13.8028 133.812 13.8028L134.369 11.7324ZM146.583 19.3634C146.583 18.476 146.456 17.6873 146.202 16.9972C145.968 16.2873 145.636 15.6859 145.206 15.1929C144.796 14.7 144.308 14.3253 143.742 14.069C143.195 13.8127 142.609 13.6845 141.984 13.6845C141.145 13.6845 140.383 13.9014 139.7 14.3352C139.036 14.7493 138.528 15.2028 138.177 15.6958V23.2676C138.684 23.8 139.26 24.2437 139.905 24.5986C140.569 24.9338 141.301 25.1014 142.102 25.1014C142.766 25.1014 143.371 24.9634 143.918 24.6873C144.464 24.4113 144.933 24.0268 145.324 23.5338C145.734 23.0211 146.046 22.4197 146.261 21.7296C146.476 21.0197 146.583 20.231 146.583 19.3634ZM161.671 23.0014C162.374 23.5929 163.164 24.076 164.043 24.4507C164.922 24.8253 165.947 25.0127 167.119 25.0127C168.525 25.0127 169.638 24.7169 170.458 24.1253C171.278 23.5338 171.688 22.7352 171.688 21.7296C171.688 21.3155 171.63 20.931 171.513 20.576C171.395 20.2211 171.161 19.8859 170.81 19.5704C170.478 19.2352 169.999 18.9099 169.374 18.5944C168.769 18.2591 167.978 17.9042 167.002 17.5296C165.947 17.1155 165.049 16.7113 164.307 16.3169C163.584 15.9028 162.998 15.4591 162.549 14.9859C162.1 14.4929 161.778 13.9606 161.583 13.3887C161.387 12.7972 161.29 12.1268 161.29 11.3775C161.29 10.6479 161.436 9.95774 161.729 9.30703C162.042 8.65633 162.491 8.09436 163.077 7.62112C163.682 7.12816 164.414 6.74365 165.273 6.4676C166.152 6.19154 167.148 6.05351 168.261 6.05351C169.472 6.05351 170.556 6.18168 171.513 6.43802C172.469 6.67464 173.416 7.01971 174.354 7.47323L173.329 9.869C172.665 9.47464 171.884 9.14929 170.985 8.89295C170.107 8.61689 169.179 8.47886 168.203 8.47886C166.914 8.47886 165.898 8.7352 165.156 9.24788C164.414 9.74084 164.043 10.4014 164.043 11.2296C164.043 11.6239 164.092 11.9789 164.19 12.2944C164.307 12.5901 164.522 12.8859 164.834 13.1817C165.166 13.4577 165.615 13.7437 166.181 14.0394C166.767 14.3352 167.539 14.6606 168.496 15.0155C169.628 15.4493 170.585 15.8929 171.366 16.3465C172.147 16.8 172.772 17.2831 173.241 17.7958C173.709 18.3084 174.041 18.8606 174.237 19.4521C174.451 20.0437 174.559 20.6944 174.559 21.4042C174.559 22.3704 174.373 23.2282 174.002 23.9775C173.631 24.7268 173.114 25.3676 172.45 25.9C171.805 26.4127 171.024 26.807 170.107 27.0831C169.189 27.3394 168.193 27.4676 167.119 27.4676C165.693 27.4676 164.395 27.2803 163.223 26.9056C162.051 26.5113 161.065 25.9986 160.265 25.3676L161.671 23.0014ZM179.578 7.44365H181.599V12.2944H185.817V14.6014H181.599V22.0253C181.599 22.5972 181.658 23.0803 181.775 23.4746C181.912 23.869 182.088 24.1845 182.302 24.4211C182.517 24.6577 182.771 24.8352 183.064 24.9535C183.376 25.0521 183.699 25.1014 184.031 25.1014C184.519 25.1014 184.978 25.0225 185.407 24.8648C185.837 24.707 186.247 24.5197 186.638 24.3028L187.37 26.4324C186.979 26.669 186.452 26.8958 185.788 27.1127C185.124 27.3493 184.431 27.4676 183.708 27.4676C182.244 27.4676 181.082 26.9845 180.223 26.0183C179.383 25.0521 178.963 23.6521 178.963 21.8183V14.6014H176.327V12.2944H179.022L179.578 7.44365ZM203.497 27.2606C202.56 27.2606 201.818 27.0732 201.271 26.6986C200.724 26.3239 200.344 25.7817 200.129 25.0718C199.445 25.7817 198.654 26.3634 197.756 26.8169C196.877 27.2507 195.911 27.4676 194.856 27.4676C194.192 27.4676 193.548 27.3591 192.923 27.1422C192.318 26.9451 191.771 26.6197 191.283 26.1662C190.814 25.7127 190.433 25.1211 190.14 24.3915C189.867 23.662 189.73 22.7746 189.73 21.7296V11.7324H192.366V21.3746C192.366 22.5775 192.611 23.5042 193.099 24.1549C193.606 24.7859 194.358 25.1014 195.354 25.1014C196.174 25.1014 196.955 24.9437 197.698 24.6282C198.44 24.2929 199.103 23.8493 199.689 23.2972V11.7324H202.326V23.1197C202.326 23.5535 202.374 23.9084 202.472 24.1845C202.57 24.4408 202.697 24.6479 202.853 24.8056C203.009 24.9437 203.195 25.0422 203.409 25.1014C203.624 25.1606 203.839 25.1901 204.054 25.1901L203.497 27.2606ZM213.039 27.4676C212.102 27.4676 211.213 27.2803 210.373 26.9056C209.553 26.531 208.831 25.9986 208.206 25.3084C207.6 24.6183 207.122 23.7901 206.771 22.8239C206.419 21.838 206.243 20.7338 206.243 19.5113C206.243 18.3479 206.419 17.2732 206.771 16.2873C207.142 15.2817 207.63 14.4239 208.235 13.7141C208.86 12.9845 209.582 12.4127 210.403 11.9986C211.223 11.5845 212.092 11.3775 213.01 11.3775C214.025 11.3775 214.894 11.5845 215.616 11.9986C216.359 12.4127 216.935 12.8366 217.345 13.2704V5.22534H219.981V23.3859C219.981 24.1352 220.157 24.6282 220.508 24.8648C220.879 25.0817 221.279 25.1901 221.709 25.1901L221.153 27.2606C219.297 27.2606 218.165 26.5113 217.755 25.0127C217.306 25.6437 216.7 26.2155 215.939 26.7282C215.177 27.2211 214.21 27.4676 213.039 27.4676ZM213.625 25.1014C214.347 25.1014 215.031 24.9338 215.675 24.5986C216.339 24.2437 216.896 23.7901 217.345 23.238V15.607C216.974 15.1338 216.456 14.7 215.792 14.3056C215.148 13.8915 214.416 13.6845 213.595 13.6845C212.892 13.6845 212.248 13.8324 211.662 14.1282C211.096 14.4239 210.608 14.8282 210.198 15.3408C209.788 15.8535 209.475 16.4648 209.26 17.1746C209.045 17.8648 208.938 18.6141 208.938 19.4225C208.938 20.2507 209.055 21.0098 209.29 21.7C209.524 22.3901 209.846 22.9915 210.256 23.5042C210.686 23.9972 211.184 24.3915 211.75 24.6873C212.336 24.9634 212.961 25.1014 213.625 25.1014ZM227.869 27.1127H225.232V11.7324H227.869V27.1127ZM226.55 9.09999C226.043 9.09999 225.603 8.92252 225.232 8.5676C224.881 8.19295 224.705 7.74929 224.705 7.23661C224.705 6.66478 224.871 6.21126 225.203 5.87605C225.535 5.54083 225.984 5.37323 226.55 5.37323C227.058 5.37323 227.488 5.56055 227.839 5.9352C228.21 6.29013 228.396 6.72393 228.396 7.23661C228.396 7.80844 228.23 8.26196 227.898 8.59717C227.566 8.93238 227.117 9.09999 226.55 9.09999ZM243.862 19.4225C243.862 18.6535 243.735 17.9239 243.481 17.2338C243.247 16.5437 242.905 15.9422 242.456 15.4296C242.026 14.9169 241.509 14.5127 240.903 14.2169C240.317 13.9014 239.673 13.7437 238.97 13.7437C237.427 13.7437 236.226 14.2563 235.367 15.2817C234.508 16.307 234.078 17.6676 234.078 19.3634C234.078 20.1324 234.196 20.8718 234.43 21.5817C234.684 22.2718 235.025 22.8831 235.455 23.4155C235.904 23.9282 236.422 24.3422 237.007 24.6577C237.613 24.9535 238.267 25.1014 238.97 25.1014C239.732 25.1014 240.415 24.9634 241.02 24.6873C241.626 24.4113 242.133 24.0268 242.544 23.5338C242.973 23.0211 243.295 22.4197 243.51 21.7296C243.744 21.0394 243.862 20.2704 243.862 19.4225ZM231.384 19.4225C231.384 18.1803 231.579 17.0662 231.969 16.0803C232.36 15.0746 232.887 14.2268 233.551 13.5366C234.235 12.8465 235.035 12.3141 235.953 11.9394C236.89 11.5648 237.896 11.3775 238.97 11.3775C240.024 11.3775 241.011 11.5648 241.928 11.9394C242.866 12.3141 243.676 12.8465 244.36 13.5366C245.043 14.2268 245.58 15.0648 245.971 16.0507C246.361 17.0366 246.556 18.1408 246.556 19.3634C246.556 20.5859 246.361 21.7 245.971 22.7056C245.6 23.6915 245.072 24.5394 244.389 25.2493C243.705 25.9591 242.895 26.5113 241.958 26.9056C241.04 27.2803 240.044 27.4676 238.97 27.4676C237.876 27.4676 236.861 27.2704 235.924 26.876C235.006 26.4817 234.205 25.9296 233.522 25.2197C232.858 24.5098 232.331 23.662 231.94 22.676C231.569 21.6901 231.384 20.6056 231.384 19.4225Z" fill="#4F4F4F"/>
</svg>
