<svg width="24" height="24" viewBox="0 0 24 24" fill="none" xmlns="http://www.w3.org/2000/svg">
<g clip-path="url(#clip0)">
<path d="M0.264 23.771H5.248C5.512 23.771 5.746 23.624 5.893 23.419L19.614 0.873996C19.79 0.580996 19.585 0.228996 19.233 0.228996H14.513C14.278 0.228996 14.073 0.345996 13.956 0.551996L0.0300001 23.361C-0.0579999 23.537 0.0590001 23.771 0.264 23.771ZM17.445 23.419L23.924 13.011C24.129 12.688 23.895 12.278 23.514 12.278H18.823C18.647 12.278 18.471 12.366 18.383 12.513L11.728 23.156C11.552 23.42 11.757 23.772 12.08 23.772H16.859C17.093 23.771 17.327 23.654 17.445 23.419Z" fill="#3EA8FF"/>
</g>
<defs>
<clipPath id="clip0">
<rect width="24" height="24" fill="white"/>
</clipPath>
</defs>
</svg>
